<svg viewBox="0 0 32 32" fill="none" xmlns="http://www.w3.org/2000/svg">
  <!-- Círculo de fundo -->
  <circle cx="16" cy="16" r="15" fill="#3B82F6" />

  <!-- Mão esquerda -->
  <path
    d="M10.5 18.5C10.5 18.5 12 17 13.5 17C15 17 16 18.5 16 20C16 21.5 15 23 13.5 23C12 23 10.5 21.5 10.5 20V18.5Z"
    fill="white"
  />
  <path
    d="M10.5 20C10.5 20 11.5 21.5 12.5 21.5C13.5 21.5 14.5 20 14.5 18.5C14.5 17 13.5 15.5 12.5 15.5C11.5 15.5 10.5 17 10.5 18.5V20Z"
    fill="white"
  />

  <!-- Mão direita -->
  <path
    d="M21.5 18.5C21.5 18.5 20 17 18.5 17C17 17 16 18.5 16 20C16 21.5 17 23 18.5 23C20 23 21.5 21.5 21.5 20V18.5Z"
    fill="white"
  />
  <path
    d="M21.5 20C21.5 20 20.5 21.5 19.5 21.5C18.5 21.5 17.5 20 17.5 18.5C17.5 17 18.5 15.5 19.5 15.5C20.5 15.5 21.5 17 21.5 18.5V20Z"
    fill="white"
  />

  <!-- Aperto de mãos - área central -->
  <path
    d="M14.5 18.5C14.5 18.5 15.5 19.5 16 19.5C16.5 19.5 17.5 18.5 17.5 18.5C17.5 18.5 16.5 17.5 16 17.5C15.5 17.5 14.5 18.5 14.5 18.5Z"
    fill="white"
  />
</svg>
