<svg viewBox="0 0 192 192" fill="none" xmlns="http://www.w3.org/2000/svg">
  <!-- Círculo de fundo -->
  <circle cx="96" cy="96" r="90" fill="#3B82F6" />

  <!-- Mão esquerda -->
  <path
    d="M63 111C63 111 72 102 81 102C90 102 96 111 96 120C96 129 90 138 81 138C72 138 63 129 63 120V111Z"
    fill="white"
  />
  <path
    d="M63 120C63 120 69 129 75 129C81 129 87 120 87 111C87 102 81 93 75 93C69 93 63 102 63 111V120Z"
    fill="white"
  />

  <!-- Mão direita -->
  <path
    d="M129 111C129 111 120 102 111 102C102 102 96 111 96 120C96 129 102 138 111 138C120 138 129 129 129 120V111Z"
    fill="white"
  />
  <path
    d="M129 120C129 120 123 129 117 129C111 129 105 120 105 111C105 102 111 93 117 93C123 93 129 102 129 111V120Z"
    fill="white"
  />

  <!-- Aperto de mãos - área central -->
  <path
    d="M87 111C87 111 93 118.5 96 118.5C99 118.5 105 111 105 111C105 111 99 103.5 96 103.5C93 103.5 87 111 87 111Z"
    fill="white"
  />
</svg>
