<svg viewBox="0 0 512 512" fill="none" xmlns="http://www.w3.org/2000/svg">
  <!-- Círculo de fundo -->
  <circle cx="256" cy="256" r="240" fill="#3B82F6" />

  <!-- Mão esquerda -->
  <path
    d="M168 296C168 296 192 272 216 272C240 272 256 296 256 320C256 344 240 368 216 368C192 368 168 344 168 320V296Z"
    fill="white"
  />
  <path
    d="M168 320C168 320 184 344 200 344C216 344 232 320 232 296C232 272 216 248 200 248C184 248 168 272 168 296V320Z"
    fill="white"
  />

  <!-- Mão direita -->
  <path
    d="M344 296C344 296 320 272 296 272C272 272 256 296 256 320C256 344 272 368 296 368C320 368 344 344 344 320V296Z"
    fill="white"
  />
  <path
    d="M344 320C344 320 328 344 312 344C296 344 280 320 280 296C280 272 296 248 312 248C328 248 344 272 344 296V320Z"
    fill="white"
  />

  <!-- Aperto de mãos - área central -->
  <path
    d="M232 296C232 296 248 316 256 316C264 316 280 296 280 296C280 296 264 276 256 276C248 276 232 296 232 296Z"
    fill="white"
  />
</svg>
